<svg xmlns="http://www.w3.org/2000/svg" xmlns:xlink="http://www.w3.org/1999/xlink" zoomAndPan="magnify" preserveAspectRatio="xMidYMid meet" version="1.0" viewBox="-37.5 -37.5 450 450"><defs><clipPath id="id1"><path d="M 109.664062 87.355469 L 259.664062 87.355469 L 259.664062 237.355469 L 109.664062 237.355469 Z M 109.664062 87.355469 " clip-rule="nonzero"/></clipPath><clipPath id="id2"><path d="M 125.605469 98.792969 L 249.253906 98.792969 L 249.253906 224.042969 L 125.605469 224.042969 Z M 125.605469 98.792969 " clip-rule="nonzero"/></clipPath></defs><rect x="-37.5" width="450" fill="#ffffff" y="-37.499999" height="449.999989" fill-opacity="1"/><rect x="-37.5" width="450" fill="#ffffff" y="-37.499999" height="449.999989" fill-opacity="1"/><rect x="-37.5" width="450" fill="#ffffff" y="-37.499999" height="449.999989" fill-opacity="1"/><rect x="-37.5" width="450" fill="#ffffff" y="-37.499999" height="449.999989" fill-opacity="1"/><g clip-path="url(#id1)"><path fill="#38b6ff" d="M 132.386719 87.355469 L 236.953125 87.355469 C 243.183594 87.355469 248.839844 89.902344 252.9375 94.007812 C 257.039062 98.113281 259.585938 103.78125 259.585938 110.015625 L 259.585938 214.714844 C 259.585938 220.949219 257.039062 226.613281 252.9375 230.71875 C 248.839844 234.824219 243.183594 237.371094 236.953125 237.371094 L 132.386719 237.371094 C 126.160156 237.371094 120.5 234.824219 116.402344 230.71875 C 112.300781 226.613281 109.757812 220.949219 109.757812 214.714844 L 109.757812 110.015625 C 109.757812 103.78125 112.300781 98.113281 116.402344 94.007812 C 120.5 89.902344 126.160156 87.355469 132.386719 87.355469 " fill-opacity="1" fill-rule="nonzero"/></g><g clip-path="url(#id2)"><path fill="#ffffff" d="M 125.503906 134.605469 C 125.503906 145.273438 130.203125 154.859375 137.636719 161.421875 C 130.203125 167.988281 125.503906 177.570312 125.503906 188.238281 C 125.503906 207.980469 141.582031 224.042969 161.34375 224.042969 L 215.03125 224.042969 L 215.03125 224.007812 C 234.046875 223.164062 249.257812 207.441406 249.257812 188.238281 C 249.257812 168.496094 233.179688 152.4375 213.417969 152.4375 L 192.398438 152.4375 C 195.433594 147.179688 197.179688 141.09375 197.179688 134.601562 C 197.179688 114.859375 181.101562 98.800781 161.339844 98.800781 C 141.578125 98.800781 125.503906 114.863281 125.503906 134.605469 Z M 213.421875 170.40625 C 223.265625 170.40625 231.273438 178.410156 231.273438 188.242188 C 231.273438 198.074219 223.265625 206.074219 213.421875 206.074219 L 161.34375 206.074219 C 151.5 206.074219 143.492188 198.074219 143.492188 188.242188 C 143.492188 178.410156 151.5 170.40625 161.34375 170.40625 Z M 179.191406 134.605469 C 179.191406 144.4375 171.183594 152.4375 161.339844 152.4375 C 151.496094 152.4375 143.488281 144.4375 143.488281 134.605469 C 143.488281 124.773438 151.496094 116.769531 161.339844 116.769531 C 171.183594 116.769531 179.191406 124.773438 179.191406 134.605469 Z M 222.582031 188.238281 C 222.582031 194.488281 217.492188 199.574219 211.234375 199.574219 C 204.980469 199.574219 199.890625 194.492188 199.890625 188.238281 C 199.890625 181.988281 204.976562 176.90625 211.234375 176.90625 C 217.492188 176.90625 222.582031 181.992188 222.582031 188.238281 Z M 222.582031 188.238281 " fill-opacity="1" fill-rule="nonzero"/></g></svg>